<?xml version="1.0" standalone="no"?>
<!DOCTYPE svg PUBLIC "-//W3C//DTD SVG 20010904//EN"
 "http://www.w3.org/TR/2001/REC-SVG-20010904/DTD/svg10.dtd">
<svg version="1.0" xmlns="http://www.w3.org/2000/svg"
 width="5334.000000pt" height="4267.000000pt" viewBox="0 0 5334.000000 4267.000000"
 preserveAspectRatio="xMidYMid meet">

<g transform="translate(0.000000,4267.000000) scale(0.100000,-0.100000)"
fill="#000000" stroke="none">
<path d="M0 21335 l0 -21335 26670 0 26670 0 0 21335 0 21335 -26670 0 -26670
0 0 -21335z m12847 8994 c191 -26 356 -146 434 -314 15 -33 816 -2544 1780
-5580 964 -3036 1755 -5523 1759 -5528 3 -4 658 1976 1454 4400 796 2425 1461
4436 1478 4471 35 74 127 177 199 223 164 105 385 117 557 30 139 -70 236
-185 291 -346 17 -49 636 -2018 1376 -4375 740 -2357 1356 -4316 1369 -4355
l23 -70 1832 5495 c1429 4285 1839 5506 1865 5545 224 341 720 346 945 10 70
-105 95 -191 95 -320 l0 -100 -2117 -6350 c-1246 -3737 -2129 -6371 -2146
-6400 -149 -261 -475 -357 -750 -222 -84 41 -195 149 -238 232 -19 37 -558
1735 -1408 4440 -756 2409 -1381 4397 -1388 4418 -12 38 -43 -55 -1467 -4390
-1123 -3418 -1463 -4441 -1490 -4485 -69 -114 -181 -206 -303 -248 -87 -30
-222 -37 -311 -16 -154 36 -298 146 -367 281 -26 49 -640 1969 -2070 6470
-2021 6362 -2033 6401 -2037 6496 -8 177 40 303 162 425 106 106 213 155 383
173 6 0 47 -4 90 -10z m21763 -129 c807 -34 1545 -190 2290 -487 468 -186 617
-293 744 -535 83 -156 117 -332 96 -499 -47 -388 -189 -862 -405 -1349 -651
-1469 -1632 -2744 -2775 -3609 -192 -145 -259 -190 -480 -323 -751 -452 -1538
-795 -2350 -1023 -830 -235 -1986 -421 -2912 -471 -71 -4 -128 -10 -128 -14 0
-4 18 -70 39 -146 223 -786 611 -1515 1147 -2159 137 -164 503 -532 654 -657
597 -494 1374 -928 2071 -1156 282 -93 600 -168 894 -211 338 -49 431 -55 860
-55 429 0 522 6 860 55 562 83 1167 266 1685 511 103 49 1449 762 1559 826 38
22 42 27 25 33 -10 5 -188 35 -394 68 -206 34 -394 65 -418 71 -114 27 -193
131 -192 254 2 142 112 256 248 256 30 0 467 -29 971 -65 675 -48 927 -69 959
-81 92 -34 162 -139 162 -243 0 -31 -93 -372 -270 -990 -304 -1065 -282 -1007
-405 -1066 -115 -56 -254 -15 -326 97 -25 39 -33 63 -36 116 -5 62 2 93 86
387 51 176 94 328 97 337 3 10 -54 -25 -133 -83 -482 -351 -1144 -702 -1867
-991 -254 -101 -712 -254 -922 -307 -899 -228 -1840 -271 -2759 -126 -1685
267 -3238 1173 -4298 2507 -834 1050 -1336 2297 -1462 3630 -136 1441 191
2889 936 4145 547 921 1317 1717 2220 2291 1006 640 2198 1013 3389 1061 276
12 276 12 540 1z m3536 -1290 c1633 -1093 2709 -2852 2933 -4795 11 -93 23
-219 26 -280 4 -60 9 -116 11 -124 9 -28 4 -669 -6 -811 -73 -1008 -357 -1959
-843 -2820 -129 -229 -343 -560 -361 -560 -11 1 -16 4 -70 47 l-28 23 90 137
c181 277 280 450 416 721 513 1026 740 2161 666 3332 -53 826 -272 1659 -633
2403 -55 114 -103 207 -106 207 -3 0 -28 -64 -54 -143 -257 -763 -626 -1560
-1044 -2255 -287 -478 -583 -901 -991 -1411 l-163 -204 29 -81 c136 -377 310
-1040 396 -1511 60 -328 136 -896 136 -1016 l0 -30 -62 3 -63 3 -7 65 c-4 36
-14 133 -23 215 -72 684 -251 1501 -472 2153 l-29 84 -108 -124 c-730 -831
-1513 -1477 -2424 -1999 -86 -50 -268 -145 -404 -212 -136 -67 -247 -125 -247
-128 -1 -9 237 -179 471 -336 571 -381 1201 -718 1793 -958 103 -42 106 -47
54 -84 -69 -50 -75 -50 -237 19 -691 295 -1446 726 -2050 1170 -78 58 -150
110 -160 116 -14 9 -49 -2 -182 -58 -346 -146 -776 -296 -1155 -403 -653 -185
-1380 -315 -1990 -355 -88 -5 -188 -12 -222 -15 -61 -4 -63 -3 -125 42 -67 49
-81 64 -70 74 4 4 108 12 232 18 975 51 1968 260 2915 613 198 74 455 179 455
187 0 4 -66 60 -146 125 -767 626 -1406 1328 -1941 2134 -63 95 -113 178 -110
185 6 15 101 47 113 38 5 -3 49 -67 98 -141 478 -725 1052 -1373 1721 -1947
169 -144 388 -321 407 -328 7 -3 90 33 183 78 898 436 1670 981 2384 1682 268
264 691 725 691 754 0 5 -22 67 -49 137 -354 931 -794 1724 -1370 2467 -50 65
-91 125 -91 135 0 9 16 35 35 57 l35 40 31 -35 c71 -81 327 -430 461 -630 413
-612 740 -1247 1004 -1947 22 -57 42 -103 45 -103 8 0 236 289 413 523 445
592 784 1142 1116 1812 257 518 478 1057 640 1562 l43 132 -67 114 c-98 170
-267 422 -403 602 -441 584 -917 1043 -1526 1471 l-172 120 -11 67 c-6 37 -8
69 -5 73 11 11 40 -5 177 -96z m-11612 -14627 c137 -25 340 -99 359 -130 4 -7
-71 -362 -78 -371 -1 -1 -40 15 -86 37 -105 48 -179 68 -297 80 -403 42 -702
-191 -719 -559 -6 -128 11 -212 65 -314 76 -145 228 -256 402 -292 127 -27
332 -7 388 38 8 8 12 51 12 154 l0 144 -165 0 -165 0 0 175 0 175 370 0 370 0
0 -449 0 -449 -48 -31 c-237 -152 -621 -199 -948 -116 -303 77 -564 296 -668
562 -104 265 -91 584 33 831 200 398 680 608 1175 515z m4843 16 c253 -28 473
-136 641 -314 235 -249 316 -607 216 -952 -99 -342 -386 -599 -759 -678 -107
-23 -312 -23 -420 0 -312 66 -577 266 -706 531 -84 173 -117 407 -85 594 36
208 111 361 245 502 193 204 440 312 744 327 15 0 71 -4 124 -10z m-11722 -19
c49 -6 124 -20 167 -30 79 -21 198 -68 198 -79 0 -10 -81 -375 -84 -378 -1 -2
-26 8 -55 22 -126 61 -355 84 -499 50 -201 -47 -366 -206 -417 -401 -19 -74
-19 -232 0 -304 54 -202 226 -360 440 -405 145 -30 367 -13 493 38 38 15 62
20 62 13 -2 -68 -39 -379 -46 -385 -30 -28 -188 -59 -339 -68 -439 -23 -836
195 -1000 549 -65 143 -80 220 -79 423 0 165 3 187 27 266 37 120 68 187 127
273 211 305 592 463 1005 416z m-2471 -915 c194 -495 359 -919 369 -942 l17
-43 -228 0 -227 0 -76 208 -76 207 -303 0 -302 0 -77 -207 -76 -208 -213 0
c-200 0 -214 1 -208 18 4 9 169 434 368 945 l362 927 159 -2 160 -3 351 -900z
m19936 -31 c201 -514 367 -939 368 -945 3 -6 -80 -8 -223 -7 l-227 3 -77 208
-76 207 -301 0 -301 0 -73 -199 c-40 -109 -76 -204 -79 -210 -5 -8 -69 -11
-219 -9 l-211 3 365 934 c200 513 367 937 370 942 3 5 76 9 162 9 l157 0 365
-936z m-22505 897 c204 -67 335 -197 391 -386 25 -85 23 -239 -5 -325 -23 -74
-77 -169 -124 -219 -74 -78 -236 -159 -352 -175 -22 -3 -118 -5 -212 -6 l-173
0 0 -370 0 -370 -220 0 -220 0 0 941 0 940 423 -3 c409 -4 424 -5 492 -27z
m6995 -367 c0 -240 4 -393 9 -389 5 3 134 181 287 395 l278 390 247 0 248 0
-279 -392 c-153 -216 -301 -425 -329 -464 l-49 -71 339 -472 c186 -259 339
-474 339 -476 0 -3 -121 -5 -270 -5 l-269 0 -273 382 -273 382 -3 -382 -2
-382 -230 0 -230 0 0 940 0 940 230 0 230 0 0 -396z m7010 -359 l0 -755 355 0
355 0 0 -185 0 -185 -585 0 -585 0 0 940 0 940 230 0 230 0 0 -755z m5535 740
c248 -53 415 -241 416 -471 1 -118 -32 -207 -103 -281 l-41 -41 40 -20 c146
-75 247 -224 274 -406 9 -57 8 -90 -4 -160 -39 -225 -179 -380 -412 -457 -68
-23 -82 -23 -492 -27 l-423 -3 0 940 0 941 338 0 c258 0 353 -4 407 -15z
m4865 -740 l0 -755 350 0 350 0 0 -185 0 -185 -580 0 -580 0 0 940 0 940 230
0 230 0 0 -755z"/>
<path d="M33935 29189 c-1001 -80 -1894 -382 -2700 -913 -715 -471 -1402
-1148 -1803 -1776 -503 -789 -796 -1631 -899 -2585 -18 -175 -25 -839 -10
-966 l8 -67 157 -7 c487 -23 1256 42 1838 156 1243 243 2506 839 3493 1647
460 377 951 869 1308 1309 514 632 931 1340 1208 2048 69 176 154 432 187 563
26 102 36 90 -140 163 -523 215 -1061 351 -1647 415 -175 19 -824 28 -1000 13z
m-1376 -858 c681 -359 1241 -720 1908 -1231 392 -301 853 -690 853 -720 0 -8
-16 -33 -34 -55 l-34 -40 -25 20 c-14 11 -96 82 -184 159 -288 252 -760 622
-1123 880 -490 350 -1019 668 -1567 944 -161 81 -293 153 -293 160 0 7 28 26
62 41 l62 28 80 -37 c45 -20 177 -88 295 -149z m-1951 -907 c37 -389 163
-1082 281 -1561 167 -669 442 -1485 715 -2117 31 -72 56 -133 56 -137 0 -13
-109 -44 -119 -33 -20 20 -184 422 -304 744 -358 962 -589 1861 -722 2807 -34
248 -35 242 20 292 51 47 69 48 73 5z"/>
<path d="M31170 13889 c-88 -14 -213 -81 -284 -153 -111 -111 -166 -250 -166
-421 0 -171 54 -308 165 -419 106 -106 236 -160 385 -158 230 1 429 149 512
378 29 82 36 253 14 348 -38 162 -150 303 -299 375 -113 56 -204 70 -327 50z"/>
<path d="M16645 13643 c-3 -20 -42 -135 -86 -255 -43 -120 -79 -221 -79 -223
0 -3 81 -5 180 -5 99 0 180 4 180 8 0 4 -36 105 -79 224 -44 120 -82 231 -86
247 -10 45 -22 46 -30 4z"/>
<path d="M36561 13615 c-11 -39 -52 -155 -90 -259 -39 -105 -69 -191 -67 -193
2 -2 84 -2 183 -1 l180 3 -55 150 c-30 83 -71 199 -92 260 l-38 109 -21 -69z"/>
<path d="M14140 13681 l0 -211 131 0 c157 0 199 11 255 65 99 95 74 262 -49
327 -37 20 -61 23 -189 26 l-148 4 0 -211z"/>
<path d="M33820 13725 l0 -198 104 5 c84 5 112 10 146 29 59 34 90 90 90 165
0 74 -22 119 -79 159 -40 28 -49 30 -152 33 l-109 4 0 -197z"/>
<path d="M33820 12955 l0 -245 120 0 c65 0 141 5 169 11 70 15 134 59 167 115
24 41 28 59 28 119 0 83 -24 137 -81 184 -60 50 -109 61 -265 61 l-138 0 0
-245z"/>
</g>
</svg>
